<?xml version="1.0" encoding="UTF-8"?>
<svg id="Layer_1" xmlns="http://www.w3.org/2000/svg" version="1.1" viewBox="0 0 1200 600">
  <!-- Generator: Adobe Illustrator 29.6.1, SVG Export Plug-In . SVG Version: 2.1.1 Build 9)  -->
  <defs>
    <style>
      .st0 {
        fill: #231f20;
      }
    </style>
  </defs>
  <path class="st0" d="M154.09,205.77v2.74c-4.21.24-7.59.76-10.14,1.55-2.54.8-4.89,2.11-7.04,3.94-3.02,2.54-5.11,5.84-6.26,9.9-1.15,4.05-1.73,10.3-1.73,18.72v106.5c0,10.81-.8,19.1-2.39,24.87-1.59,5.76-4.49,10.71-8.71,14.85-4.21,4.05-9.9,7.33-17.05,9.84-7.16,2.5-14.47,3.76-21.94,3.76-4.45,0-8.78-.48-13-1.43-4.21-.95-7.59-2.23-10.14-3.82-4.69-2.86-7.04-6.68-7.04-11.45,0-2.86.91-5.21,2.74-7.04,1.83-1.83,4.21-2.74,7.16-2.74s5.29.95,7.27,2.86c.95.95,1.79,2.13,2.5,3.52.72,1.39,1.79,3.95,3.22,7.69,1.35,3.42,2.94,5.86,4.77,7.33,1.83,1.47,4.21,2.21,7.16,2.21,3.82,0,7.14-1.23,9.96-3.7,2.82-2.47,4.99-6.04,6.5-10.73,1.99-6.44,2.98-18.8,2.98-37.09v-105.54c0-5.01-.36-9.54-1.07-13.6-.88-5.17-2.78-9.22-5.72-12.16-4.61-4.85-10.89-7.59-18.84-8.23v-2.74h76.8Z"/>
  <path class="st0" d="M224.46,243.99c34.93,0,58.13,23.45,58.13,57.64h-90.37c.49,37.62,18.32,63.02,45.43,63.02,17.59,0,33.71-10.75,43.23-29.31l2.2,2.93c-10.26,20.76-30.78,32.73-56.67,32.73-37.61,0-63.02-25.16-63.02-63.75s24.67-63.26,61.06-63.26ZM223.97,247.4c-17.83,0-30.78,20.52-31.75,50.56h63.75c-1.22-30.04-14.17-50.56-32-50.56Z"/>
  <path class="st0" d="M419.6,348.28c0,11.97,4.15,17.83,12.21,17.83v2.44c-10.01-.49-16.12-.98-26.87-.98s-16.37.49-25.16.98v-2.44c8.06,0,12.21-5.86,12.21-17.83v-42.75c0-19.05-.49-26.38-2.69-33.95-3.91-12.7-11.48-20.27-21.25-20.27-18.32,0-37.37,27.6-37.37,54.47v42.26c0,11.97,4.15,18.07,12.21,18.07v2.44c-8.79-.49-15.63-.98-25.89-.98-11.48,0-17.34.49-26.14.98v-2.44c8.06,0,12.21-6.11,12.21-18.07v-80.12c0-12.7-4.15-19.05-12.21-19.05v-2.44c5.13.24,10.26.49,14.9.49,8.55,0,18.32-.49,24.91-2.2v41.77c6.59-25.16,26.38-42.5,50.81-42.5,36.15,0,38.1,32.97,38.1,60.57v43.72Z"/>
  <path class="st0" d="M569.57,348.28c0,11.97,4.15,17.83,12.21,17.83v2.44c-10.01-.49-16.12-.98-26.87-.98s-16.36.49-25.16.98v-2.44c8.06,0,12.21-5.86,12.21-17.83v-42.75c0-19.05-.49-26.38-2.69-33.95-3.91-12.7-11.48-20.27-21.25-20.27-18.32,0-37.37,27.6-37.37,54.47v42.26c0,11.97,4.15,18.07,12.21,18.07v2.44c-8.79-.49-15.63-.98-25.89-.98-11.48,0-17.34.49-26.14.98v-2.44c8.06,0,12.21-6.11,12.21-18.07v-80.12c0-12.7-4.15-19.05-12.21-19.05v-2.44c5.13.24,10.26.49,14.9.49,8.55,0,18.32-.49,24.91-2.2v41.77c6.59-25.16,26.38-42.5,50.8-42.5,36.15,0,38.1,32.97,38.1,60.57v43.72Z"/>
  <path class="st0" d="M646.5,301.87c15.63-4.64,22.23-11.72,22.23-23.69v-.24c0-17.59-9.53-30.53-22.96-30.53s-25.16,14.17-30.78,39.08l-19.54-19.54c12.21-13.92,32.73-22.96,55.2-22.96,28.82,0,45.68,14.41,45.68,39.32v70.83c0,5.86,1.95,7.82,3.91,7.82,1.47,0,2.69-.73,3.91-1.71l.49,2.44c-4.88,5.86-10.26,8.31-18.07,8.31-12.21,0-17.83-6.11-17.83-19.3v-9.28c-5.62,18.32-20.52,28.58-42.5,28.58-24.67,0-41.28-13.19-41.28-33.22,0-29.8,36.64-28.58,61.55-35.91ZM668.73,324.83v-34.93c-3.18,6.84-10.02,11.72-20.27,15.14-16.12,5.37-34.93,8.3-34.93,32.24,0,17.1,9.53,28.33,23.69,28.33,17.83,0,31.51-17.83,31.51-40.79Z"/>
  <path class="st0" d="M905.39,324.1c-.49,8.31-.98,13.19-.98,22.23,0,8.55.49,13.43.98,22.23h-17.1l-29.55-.49h-16.85c-24.91,0-39.08.49-57.64.49v-2.44c8.06,0,12.21-5.86,12.21-17.83v-130.43c0-11.97-4.15-17.83-12.21-17.83v-2.44c17.59,0,31.26.49,54.71.49s36.64-.49,61.55-.49c-.49,7.82-.98,11.97-.98,19.78s.49,12.46.98,19.78h-3.66c0-23.69-15.63-35.66-46.65-35.66h-14.17c-7.08,0-10.75,3.66-10.75,10.75v65.46h10.26c11.97,0,19.78-5.86,23.45-17.83h3.17c-.49,7.57-.98,11.97-.98,19.54s.49,11.97.98,19.78h-3.17c-3.66-11.97-11.48-17.83-23.45-17.83h-10.26v73.28c0,6.59,3.66,10.01,11.24,10.01h18.56c31.02,0,46.65-13.43,46.65-40.55h3.66Z"/>
  <path class="st0" d="M919.55,266.94c-5.13-11.97-10.5-18.07-16.61-18.07v-2.44c9.04.49,14.41.98,25.65.98s16.61-.49,21.74-.98v2.44c-3.18,0-4.64,1.71-4.64,5.13,0,2.93,1.22,7.33,3.66,12.95l29.8,71.57,29.8-71.57c.98-2.2,1.47-4.4,1.47-6.35,0-4.64-2.93-8.55-8.79-11.72v-2.44c5.62.49,9.04.98,16.12.98s10.5-.49,15.88-.98v2.44c-10.5,4.15-17.59,10.26-20.76,18.07l-42.5,102.1h-8.3l-42.5-102.1Z"/>
  <path class="st0" d="M1092.71,243.99c34.93,0,58.13,23.45,58.13,57.64h-90.37c.49,37.62,18.32,63.02,45.43,63.02,17.59,0,33.71-10.75,43.23-29.31l2.2,2.93c-10.26,20.76-30.78,32.73-56.67,32.73-37.61,0-63.02-25.16-63.02-63.75s24.67-63.26,61.06-63.26ZM1092.22,247.4c-17.83,0-30.78,20.52-31.75,50.56h63.75c-1.22-30.04-14.17-50.56-32-50.56Z"/>
</svg>